<svg width="600" height="200" viewBox="0 0 600 200" fill="none" xmlns="http://www.w3.org/2000/svg">
<path fill-rule="evenodd" clip-rule="evenodd" d="M174.942 150.276L184.885 144.536V105.536H174.942V150.276ZM174.942 93.5359H184.885V54.5359L174.942 48.7957V93.5359ZM162.942 43.5359V93.5359H145.913V77.0359L112.942 58V43.5359H162.942ZM67.9712 93.5359V77.0359L100.942 58.0001V43.5359H50.9422V93.5359H67.9712ZM67.9712 105.536H50.9422V155.536H100.942V141.072L67.9712 122.036V105.536ZM112.942 141.072V155.536H162.942V105.536H145.913V122.036L112.942 141.072ZM145.047 167.536L112.942 186.072V167.536H145.047ZM145.047 31.5359H112.942V13L145.047 31.5359ZM100.942 31.5359V13.0001L68.8372 31.5359H100.942ZM100.942 186.072V167.536H68.8372L100.942 186.072ZM38.9422 48.7958V93.5359H29V54.5359L38.9422 48.7958ZM38.9422 105.536V150.276L29 144.536V105.536H38.9422Z" fill="#C59F63"/>
<path d="M226.932 136V127.264L264.468 77.152L267.444 80.512H229.428V68.8H278.868V77.44L241.524 127.648L238.452 124.48H279.924V136H226.932ZM303.153 136V85.408H314.961V136H303.153ZM308.913 74.656C306.545 74.656 304.689 74.08 303.345 72.928C302.065 71.712 301.425 70.016 301.425 67.84C301.425 65.792 302.097 64.128 303.441 62.848C304.785 61.568 306.609 60.928 308.913 60.928C311.345 60.928 313.201 61.536 314.481 62.752C315.825 63.904 316.497 65.6 316.497 67.84C316.497 69.824 315.825 71.456 314.481 72.736C313.137 74.016 311.281 74.656 308.913 74.656ZM339.534 136V85.408H351.15L351.342 101.536L349.71 97.888C350.414 95.328 351.63 93.024 353.358 90.976C355.086 88.928 357.07 87.328 359.31 86.176C361.614 84.96 364.014 84.352 366.51 84.352C367.598 84.352 368.622 84.448 369.582 84.64C370.606 84.832 371.438 85.056 372.078 85.312L368.91 98.272C368.206 97.888 367.342 97.568 366.318 97.312C365.294 97.056 364.27 96.928 363.246 96.928C361.646 96.928 360.11 97.248 358.638 97.888C357.23 98.464 355.982 99.296 354.894 100.384C353.806 101.472 352.942 102.752 352.302 104.224C351.726 105.632 351.438 107.232 351.438 109.024V136H339.534ZM409.08 136.96C404.344 136.96 400.088 135.808 396.312 133.504C392.536 131.2 389.56 128.064 387.384 124.096C385.208 120.128 384.12 115.648 384.12 110.656C384.12 105.664 385.208 101.184 387.384 97.216C389.56 93.248 392.536 90.112 396.312 87.808C400.088 85.504 404.344 84.352 409.08 84.352C413.624 84.352 417.752 85.216 421.464 86.944C425.176 88.672 428.056 91.072 430.104 94.144L423.576 102.016C422.616 100.672 421.4 99.456 419.928 98.368C418.456 97.28 416.888 96.416 415.224 95.776C413.56 95.136 411.896 94.816 410.232 94.816C407.416 94.816 404.888 95.52 402.648 96.928C400.472 98.272 398.744 100.16 397.464 102.592C396.184 104.96 395.544 107.648 395.544 110.656C395.544 113.664 396.184 116.352 397.464 118.72C398.808 121.088 400.6 122.976 402.84 124.384C405.08 125.792 407.576 126.496 410.328 126.496C411.992 126.496 413.592 126.24 415.128 125.728C416.728 125.152 418.232 124.352 419.64 123.328C421.048 122.304 422.36 121.024 423.576 119.488L430.104 127.456C427.928 130.272 424.92 132.576 421.08 134.368C417.304 136.096 413.304 136.96 409.08 136.96ZM471.87 136.96C466.814 136.96 462.302 135.84 458.334 133.6C454.366 131.296 451.23 128.16 448.926 124.192C446.622 120.224 445.47 115.712 445.47 110.656C445.47 105.6 446.622 101.088 448.926 97.12C451.23 93.152 454.366 90.048 458.334 87.808C462.302 85.504 466.814 84.352 471.87 84.352C476.862 84.352 481.342 85.504 485.31 87.808C489.278 90.048 492.382 93.152 494.622 97.12C496.926 101.088 498.078 105.6 498.078 110.656C498.078 115.712 496.926 120.224 494.622 124.192C492.382 128.16 489.278 131.296 485.31 133.6C481.342 135.84 476.862 136.96 471.87 136.96ZM471.87 126.496C474.622 126.496 477.054 125.792 479.166 124.384C481.342 122.976 483.038 121.088 484.254 118.72C485.534 116.352 486.142 113.664 486.078 110.656C486.142 107.584 485.534 104.864 484.254 102.496C483.038 100.128 481.342 98.272 479.166 96.928C477.054 95.52 474.622 94.816 471.87 94.816C469.118 94.816 466.622 95.52 464.382 96.928C462.206 98.272 460.51 100.16 459.294 102.592C458.078 104.96 457.47 107.648 457.47 110.656C457.47 113.664 458.078 116.352 459.294 118.72C460.51 121.088 462.206 122.976 464.382 124.384C466.622 125.792 469.118 126.496 471.87 126.496ZM518.24 136V85.408H529.76L529.952 95.776L527.744 96.928C528.384 94.624 529.632 92.544 531.488 90.688C533.344 88.768 535.552 87.232 538.112 86.08C540.672 84.928 543.296 84.352 545.984 84.352C549.824 84.352 553.024 85.12 555.584 86.656C558.208 88.192 560.16 90.496 561.44 93.568C562.784 96.64 563.456 100.48 563.456 105.088V136H551.648V105.952C551.648 103.392 551.296 101.28 550.592 99.616C549.888 97.888 548.8 96.64 547.328 95.872C545.856 95.04 544.064 94.656 541.952 94.72C540.224 94.72 538.624 95.008 537.152 95.584C535.744 96.096 534.496 96.864 533.408 97.888C532.384 98.848 531.552 99.968 530.912 101.248C530.336 102.528 530.048 103.936 530.048 105.472V136H524.192C523.04 136 521.952 136 520.928 136C519.968 136 519.072 136 518.24 136Z" fill="white"/>
</svg>
