<svg width="156" height="174" viewBox="0 0 156 174" fill="none" xmlns="http://www.w3.org/2000/svg">
<path fill-rule="evenodd" clip-rule="evenodd" d="M146 137.74L155.942 132V93H146V137.74ZM146 81H155.942V42L146 36.2598V81ZM134 31V81H116.971V64.5L83.9999 45.4641V31H134ZM39.0288 81V64.5L71.9999 45.4641V31H21.9999V81H39.0288ZM39.0288 93H21.9999V143H71.9999V128.536L39.0288 109.5V93ZM83.9999 128.536V143H134V93H116.971V109.5L83.9999 128.536ZM116.105 155L83.9999 173.536V155H116.105ZM116.105 19H83.9999V0.464081L116.105 19ZM71.9999 19V0.464134L39.8949 19H71.9999ZM71.9999 173.536V155H39.8948L71.9999 173.536ZM9.99992 36.2599V81H0.0576782V42L9.99992 36.2599ZM9.99992 93V137.74L0.0576782 132V93H9.99992Z" fill="#C59F63"/>
</svg>
